<svg width="22" height="22" viewBox="0 0 22 22" fill="none" xmlns="http://www.w3.org/2000/svg">
<path d="M20.1667 16.042H13.75" stroke="#171717" stroke-width="1.5" stroke-miterlimit="10" stroke-linecap="round" stroke-linejoin="round"/>
<path d="M4.58203 16.042H1.83203" stroke="#171717" stroke-width="1.5" stroke-miterlimit="10" stroke-linecap="round" stroke-linejoin="round"/>
<path d="M20.168 5.95801H17.418" stroke="#171717" stroke-width="1.5" stroke-miterlimit="10" stroke-linecap="round" stroke-linejoin="round"/>
<path d="M8.2487 5.95801H1.83203" stroke="#171717" stroke-width="1.5" stroke-miterlimit="10" stroke-linecap="round" stroke-linejoin="round"/>
<path d="M6.41536 13.292H11.9154C12.9237 13.292 13.7487 13.7503 13.7487 15.1253V16.9587C13.7487 18.3337 12.9237 18.792 11.9154 18.792H6.41536C5.40703 18.792 4.58203 18.3337 4.58203 16.9587V15.1253C4.58203 13.7503 5.40703 13.292 6.41536 13.292Z" stroke="#171717" stroke-width="1.5" stroke-miterlimit="10" stroke-linecap="round" stroke-linejoin="round"/>
<path d="M10.0833 3.20801H15.5833C16.5917 3.20801 17.4167 3.66634 17.4167 5.04134V6.87467C17.4167 8.24967 16.5917 8.70801 15.5833 8.70801H10.0833C9.075 8.70801 8.25 8.24967 8.25 6.87467V5.04134C8.25 3.66634 9.075 3.20801 10.0833 3.20801Z" stroke="#171717" stroke-width="1.5" stroke-miterlimit="10" stroke-linecap="round" stroke-linejoin="round"/>
</svg>
