<svg width="132" height="141" viewBox="0 0 132 141" fill="none" xmlns="http://www.w3.org/2000/svg">
<mask id="mask0_229_2377" style="mask-type:luminance" maskUnits="userSpaceOnUse" x="0" y="0" width="132" height="141">
<path d="M123.973 0.462891H8.02415C4.02185 0.462891 0.777344 3.94512 0.777344 8.24067V132.685C0.777344 136.981 4.02185 140.463 8.02415 140.463H123.973C127.975 140.463 131.22 136.981 131.22 132.685V8.24067C131.22 3.94512 127.975 0.462891 123.973 0.462891Z" fill="white"/>
</mask>
<g mask="url(#mask0_229_2377)">
<path d="M0.777351 0.462891L131.22 0.462897V70.4629H0.777344L0.777351 0.462891Z" fill="#8FADF4"/>
<path d="M131.22 35.4629C131.22 16.0995 116.517 0.462891 98.5715 0.462891C80.6263 0.462886 65.9986 16.1805 65.9986 35.4629V70.4629C65.9986 51.0995 51.2955 35.4629 33.3503 35.4629C15.405 35.4629 0.777349 51.1804 0.777351 70.4629L0.777344 140.463H131.22V35.4629Z" fill="#336AEA"/>
<path d="M33.3873 52.9629L17.082 122.963L17.082 140.463H49.6927V122.963L33.3873 52.9629Z" fill="#FF7D6A"/>
<path d="M82.3026 140.463H49.692V122.963L33.3867 52.9629H98.608L90.2932 88.6588C113.518 92.7484 131.219 114.372 131.219 140.463H82.3026Z" fill="#22244E"/>
<path fill-rule="evenodd" clip-rule="evenodd" d="M49.6953 52.9629H82.3059L66.0948 87.9629L49.6953 52.9629Z" fill="#FF7D6A"/>
<path d="M66.0006 52.9629C75.0059 52.9629 82.3059 45.1279 82.3059 35.4629C82.3059 25.7978 75.0059 17.9629 66.0006 17.9629C56.9954 17.9629 49.6953 25.7978 49.6953 35.4629C49.6953 45.1279 56.9954 52.9629 66.0006 52.9629Z" fill="#FAF6E7"/>
<path d="M74.1491 39.8379C74.1491 44.6788 70.4733 48.5879 65.987 48.5879C61.5007 48.5879 57.8438 44.6586 57.8438 39.8379H74.1491Z" fill="#22244E"/>
<path d="M114.915 26.7129C114.915 31.5454 111.265 35.4629 106.762 35.4629C102.259 35.4629 98.6094 31.5454 98.6094 26.7129C98.6094 21.8804 102.259 17.9629 106.762 17.9629C111.265 17.9629 114.915 21.8804 114.915 26.7129Z" fill="#FAF6E7"/>
<path d="M27.5404 41.7382L25.2347 35.4629L22.9289 41.7382L17.082 44.2129L22.9289 46.6876L25.2347 52.9629L27.5404 46.6876L33.3873 44.2129L27.5404 41.7382Z" fill="#FAF6E7"/>
<path d="M109.068 76.7382L106.762 70.4629L104.456 76.7382L98.6094 79.2129L104.456 81.6876L106.762 87.9629L109.068 81.6876L114.915 79.2129L109.068 76.7382Z" fill="#FAF6E7"/>
<path d="M82.302 17.9629C82.302 8.29239 75.007 0.462891 65.9967 0.462891C56.9864 0.462891 49.6914 8.29237 49.6914 17.9629H57.8441C57.8441 13.1276 61.5104 9.21289 65.9967 9.21289C70.5019 9.21289 74.1494 13.1479 74.1494 17.9629H82.302Z" fill="#22244E"/>
<path d="M66.0006 17.9629C56.9903 17.9629 49.6953 25.7924 49.6953 35.4629H66.0006V17.9629Z" fill="#22244E"/>
<path d="M66 35.4629H82.3053C82.3053 25.7924 75.0103 17.9629 66 17.9629V35.4629Z" fill="#22244E"/>
</g>
</svg>
