<svg width="142" height="140" viewBox="0 0 142 140" fill="none" xmlns="http://www.w3.org/2000/svg">
<mask id="mask0_229_2398" style="mask-type:luminance" maskUnits="userSpaceOnUse" x="0" y="0" width="142" height="140">
<path d="M133.652 0H8.35088C4.02575 0 0.519531 3.48223 0.519531 7.77778V132.222C0.519531 136.518 4.02575 140 8.35088 140H133.652C137.978 140 141.484 136.518 141.484 132.222V7.77778C141.484 3.48223 137.978 0 133.652 0Z" fill="white"/>
</mask>
<g mask="url(#mask0_229_2398)">
<path d="M-5.16406 6.61322e-06L-5.16406 75.6464H147.171V0L-5.16406 6.61322e-06Z" fill="#404492"/>
<path d="M-5.16406 37.8232C-5.16406 16.8979 12.0066 1.81959e-06 32.9637 0C53.9207 -1.81959e-06 71.0034 16.9854 71.0034 37.8232V75.6464C71.0034 54.7211 88.1741 37.8232 109.131 37.8232C130.088 37.8232 147.171 54.8085 147.171 75.6464V151.293H-5.16405L-5.16406 37.8232Z" fill="#22244E"/>
<path d="M-5.16406 151.293L15.8132 136.61L5.02488 113.47L30.5972 111.163L32.9196 85.7657L56.2195 96.4803L71.0034 75.6465L85.7872 96.4803L109.087 85.7657L111.41 111.163L136.982 113.47L126.193 136.61L147.171 151.293H-5.16406Z" fill="#FF7D6A"/>
<path d="M26.0926 63.5159L23.3998 56.7344L20.7071 63.5159L13.8789 66.1902L20.7071 68.8645L23.3998 75.646L26.0926 68.8645L32.9208 66.1902L26.0926 63.5159Z" fill="#FAF6E7"/>
<path d="M121.3 63.5159L118.607 56.7344L115.914 63.5159L109.086 66.1902L115.914 68.8645L118.607 75.646L121.3 68.8645L128.128 66.1902L121.3 63.5159Z" fill="#FAF6E7"/>
<path d="M-5.16406 151.292L-5.16406 94.5571L26.5233 126.028L70.6731 37.8223L115.385 126.125L147.171 94.5571V151.292H-5.16406Z" fill="#FEB602"/>
<path d="M80.5223 85.1023C80.5223 90.3246 76.2597 94.5581 71.0014 94.5581C65.7431 94.5581 61.4805 90.3246 61.4805 85.1023C61.4805 79.88 65.7431 75.6465 71.0014 75.6465C76.2597 75.6465 80.5223 79.88 80.5223 85.1023Z" fill="#FAF6E7"/>
<path d="M90.0447 132.38C90.0447 142.825 81.5194 151.292 71.0028 151.292C60.4862 151.292 51.9609 142.825 51.9609 132.38C51.9609 121.936 60.4862 113.469 71.0028 113.469C81.5194 113.469 90.0447 121.936 90.0447 132.38Z" fill="#FAF6E7"/>
<path d="M80.5223 132.382C80.5223 137.604 76.2597 141.837 71.0014 141.837C65.7431 141.837 61.4805 137.604 61.4805 132.382C61.4805 127.159 65.7431 122.926 71.0014 122.926C76.2597 122.926 80.5223 127.159 80.5223 132.382Z" fill="#FF7D6A"/>
<path d="M71.0017 0C49.9323 0 32.918 16.9854 32.918 37.8232H51.9598C51.9598 27.4044 60.5111 18.9116 71.0017 18.9116C81.4923 18.9116 90.0435 27.4044 90.0435 37.8232H109.085C109.085 16.8979 91.9831 0 71.0017 0Z" fill="#FAF6E7"/>
</g>
</svg>
