<svg width="132" height="140" viewBox="0 0 132 140" fill="none" xmlns="http://www.w3.org/2000/svg">
<mask id="mask0_229_2360" style="mask-type:luminance" maskUnits="userSpaceOnUse" x="0" y="0" width="132" height="141">
<path d="M123.814 0.00195312H8.18391C4.19262 0.00195312 0.957031 3.48418 0.957031 7.77973V132.224C0.957031 136.52 4.19262 140.002 8.18391 140.002H123.814C127.805 140.002 131.041 136.52 131.041 132.224V7.77973C131.041 3.48418 127.805 0.00195312 123.814 0.00195312Z" fill="white"/>
</mask>
<g mask="url(#mask0_229_2360)">
<path d="M131.041 140.002H0.957031V0.00195312H131.041V140.002Z" fill="#FEB602"/>
<path d="M0.957031 105.002C0.957031 124.365 15.6197 140.002 33.5156 140.002C51.4115 140.002 65.999 124.284 65.999 105.002V87.502H131.041V35.002C131.041 15.6385 116.378 0.00195312 98.4824 0.00195312C80.5864 0.00195312 65.999 15.7195 65.999 35.002V52.502H0.957031V105.002Z" fill="#FAF6E7"/>
<path d="M35.7773 111.277L33.4779 105.002L31.1785 111.277L25.3477 113.752L31.1785 116.227L33.4779 122.502L35.7773 116.227L41.6081 113.752L35.7773 111.277Z" fill="#22244E"/>
<path d="M100.82 23.7773L98.5209 17.502L96.2215 23.7773L90.3906 26.252L96.2215 28.7266L98.5209 35.002L100.82 28.7266L106.651 26.252L100.82 23.7773Z" fill="#22244E"/>
<path d="M108.949 120.027L106.65 113.752L104.35 120.027L98.5195 122.502L104.35 124.977L106.65 131.252L108.949 124.977L114.78 122.502L108.949 120.027Z" fill="#FAF6E7"/>
<path d="M27.6484 15.0272L25.349 8.75195L23.0496 15.0272L17.2188 17.502L23.0496 19.9766L25.349 26.252L27.6484 19.9766L33.4792 17.502L27.6484 15.0272Z" fill="#FAF6E7"/>
<path d="M122.912 70.002C122.912 50.661 108.362 35.002 90.3906 35.002V52.502C99.3762 52.502 106.651 60.3719 106.651 70.002H122.912Z" fill="#336AEA"/>
<path d="M41.6094 52.502V35.002L90.3908 87.502C99.3388 87.502 106.651 79.6725 106.651 70.002H122.912C122.912 89.343 108.362 105.002 90.3908 105.002L41.6094 52.502Z" fill="#336AEA"/>
<path d="M9.08594 70.002C9.08594 50.661 23.6358 35.002 41.6069 35.002V52.502C32.6589 52.502 25.3464 60.3315 25.3464 70.002C25.3464 79.632 32.6214 87.502 41.6069 87.502L90.3884 35.002V52.502L41.6069 105.002C23.6358 105.002 9.08594 89.343 9.08594 70.002Z" fill="#22244E"/>
</g>
</svg>
