<svg width="22" height="22" viewBox="0 0 22 22" fill="none" xmlns="http://www.w3.org/2000/svg">
<path d="M12.1 13.2004C12.1 14.172 11.6783 15.052 11 15.657C10.4133 16.1887 9.64331 16.5004 8.79998 16.5004C6.97581 16.5004 5.5 15.0245 5.5 13.2004C5.5 11.6787 6.53586 10.3954 7.92919 10.0195C8.30502 10.9729 9.12082 11.7154 10.1292 11.9904C10.4042 12.0637 10.6975 12.1095 11 12.1095C11.3025 12.1095 11.5958 12.0729 11.8708 11.9904C12.0175 12.357 12.1 12.7695 12.1 13.2004Z" stroke="#171717" stroke-width="1.5" stroke-linecap="round" stroke-linejoin="round"/>
<path d="M14.2992 8.8C14.2992 9.23083 14.2167 9.64333 14.07 10.0192C13.6942 10.9725 12.8784 11.715 11.87 11.99C11.595 12.0633 11.3017 12.1092 10.9992 12.1092C10.6967 12.1092 10.4034 12.0725 10.1284 11.99C9.12002 11.715 8.30422 10.9817 7.92839 10.0192C7.78172 9.64333 7.69922 9.23083 7.69922 8.8C7.69922 6.97583 9.17503 5.5 10.9992 5.5C12.8234 5.5 14.2992 6.97583 14.2992 8.8Z" stroke="#171717" stroke-width="1.5" stroke-linecap="round" stroke-linejoin="round"/>
<path d="M16.5 13.1998C16.5 15.0239 15.0242 16.4998 13.2 16.4998C12.3567 16.4998 11.5867 16.1789 11 15.6564C11.6783 15.0606 12.1 14.1806 12.1 13.1998C12.1 12.7689 12.0175 12.3564 11.8708 11.9806C12.8792 11.7056 13.695 10.9723 14.0708 10.0098C15.4641 10.3948 16.5 11.6781 16.5 13.1998Z" stroke="#171717" stroke-width="1.5" stroke-linecap="round" stroke-linejoin="round"/>
<path d="M8.2487 20.1663H13.7487C18.332 20.1663 20.1654 18.333 20.1654 13.7497V8.24967C20.1654 3.66634 18.332 1.83301 13.7487 1.83301H8.2487C3.66536 1.83301 1.83203 3.66634 1.83203 8.24967V13.7497C1.83203 18.333 3.66536 20.1663 8.2487 20.1663Z" stroke="#171717" stroke-width="1.5" stroke-linecap="round" stroke-linejoin="round"/>
</svg>
