<svg width="51" height="51" viewBox="0 0 51 51" fill="none" xmlns="http://www.w3.org/2000/svg">
<path d="M51 25.5C51 39.5833 39.5833 51 25.5 51C11.4167 51 0 39.5833 0 25.5C0 11.4167 11.4167 0 25.5 0C39.5833 0 51 11.4167 51 25.5Z" fill="black" fill-opacity="0.5"/>
<path d="M32 26C32.5523 26 33 25.5523 33 25C33 24.4477 32.5523 24 32 24V26ZM18.2929 24.2929C17.9024 24.6834 17.9024 25.3166 18.2929 25.7071L24.6569 32.0711C25.0474 32.4616 25.6805 32.4616 26.0711 32.0711C26.4616 31.6805 26.4616 31.0474 26.0711 30.6569L20.4142 25L26.0711 19.3431C26.4616 18.9526 26.4616 18.3195 26.0711 17.9289C25.6805 17.5384 25.0474 17.5384 24.6569 17.9289L18.2929 24.2929ZM32 24H19V26H32V24Z" fill="white"/>
</svg>
