<svg width="51" height="51" viewBox="0 0 51 51" fill="none" xmlns="http://www.w3.org/2000/svg">
<circle cx="25.5" cy="25.5" r="25.5" fill="#010101" fill-opacity="0.5"/>
<path d="M19 24C18.4477 24 18 24.4477 18 25C18 25.5523 18.4477 26 19 26V24ZM32.7071 25.7071C33.0976 25.3166 33.0976 24.6834 32.7071 24.2929L26.3431 17.9289C25.9526 17.5384 25.3195 17.5384 24.9289 17.9289C24.5384 18.3195 24.5384 18.9526 24.9289 19.3431L30.5858 25L24.9289 30.6569C24.5384 31.0474 24.5384 31.6805 24.9289 32.0711C25.3195 32.4616 25.9526 32.4616 26.3431 32.0711L32.7071 25.7071ZM19 26H32V24H19V26Z" fill="white"/>
</svg>
