<svg width="25" height="24" viewBox="0 0 25 24" fill="none" xmlns="http://www.w3.org/2000/svg">
<path d="M8.50578 16.0204C7.74578 15.9504 6.99578 15.6004 6.41578 14.9904C5.09578 13.6004 5.09578 11.3204 6.41578 9.93038L8.60578 7.63039C9.92578 6.24039 12.0958 6.24039 13.4258 7.63039C14.7458 9.02039 14.7458 11.3004 13.4258 12.6904L12.3358 13.8404" stroke="white" stroke-width="1.5" stroke-linecap="round" stroke-linejoin="round"/>
<path d="M16.1444 7.98047C16.9044 8.05047 17.6544 8.40047 18.2344 9.01047C19.5544 10.4005 19.5544 12.6805 18.2344 14.0705L16.0444 16.3705C14.7244 17.7605 12.5544 17.7605 11.2244 16.3705C9.90437 14.9805 9.90437 12.7005 11.2244 11.3105L12.3144 10.1605" stroke="white" stroke-width="1.5" stroke-linecap="round" stroke-linejoin="round"/>
<path d="M9.32422 22H15.3242C20.3242 22 22.3242 20 22.3242 15V9C22.3242 4 20.3242 2 15.3242 2H9.32422C4.32422 2 2.32422 4 2.32422 9V15C2.32422 20 4.32422 22 9.32422 22Z" stroke="white" stroke-width="1.5" stroke-linecap="round" stroke-linejoin="round"/>
</svg>
