<svg width="24" height="25" viewBox="0 0 24 25" fill="none" xmlns="http://www.w3.org/2000/svg">
<path d="M3.50141 21.0004C4.33141 21.8304 5.67141 21.8304 6.50141 21.0004L19.5014 8.00043C20.3314 7.17043 20.3314 5.83043 19.5014 5.00043C18.6714 4.17043 17.3314 4.17043 16.5014 5.00043L3.50141 18.0004C2.67141 18.8304 2.67141 20.1704 3.50141 21.0004Z" stroke="#171717" stroke-width="1.5" stroke-linecap="round" stroke-linejoin="round"/>
<path d="M18.0117 9.49023L15.0117 6.49023" stroke="#171717" stroke-width="1.5" stroke-linecap="round" stroke-linejoin="round"/>
<path d="M8.5 2.94L10 2.5L9.56 4L10 5.5L8.5 5.06L7 5.5L7.44 4L7 2.5L8.5 2.94Z" stroke="#171717" stroke-width="1.5" stroke-linecap="round" stroke-linejoin="round"/>
<path d="M4.5 8.94L6 8.5L5.56 10L6 11.5L4.5 11.06L3 11.5L3.44 10L3 8.5L4.5 8.94Z" stroke="#171717" stroke-width="1.5" stroke-linecap="round" stroke-linejoin="round"/>
<path d="M19.5 13.94L21 13.5L20.56 15L21 16.5L19.5 16.06L18 16.5L18.44 15L18 13.5L19.5 13.94Z" stroke="#171717" stroke-width="1.5" stroke-linecap="round" stroke-linejoin="round"/>
</svg>
