<svg width="24" height="24" viewBox="0 0 24 24" fill="none" xmlns="http://www.w3.org/2000/svg">
<path d="M16.9609 6.16992C18.9609 7.55992 20.3409 9.76992 20.6209 12.3199" stroke="#171717" stroke-width="1.5" stroke-linecap="round" stroke-linejoin="round"/>
<path d="M3.48828 12.3697C3.74828 9.82973 5.10828 7.61973 7.08828 6.21973" stroke="#171717" stroke-width="1.5" stroke-linecap="round" stroke-linejoin="round"/>
<path d="M8.19141 20.9404C9.35141 21.5304 10.6714 21.8604 12.0614 21.8604C13.4014 21.8604 14.6614 21.5604 15.7914 21.0104" stroke="#171717" stroke-width="1.5" stroke-linecap="round" stroke-linejoin="round"/>
<path d="M12.0613 7.69965C13.5966 7.69965 14.8413 6.455 14.8413 4.91965C14.8413 3.3843 13.5966 2.13965 12.0613 2.13965C10.5259 2.13965 9.28125 3.3843 9.28125 4.91965C9.28125 6.455 10.5259 7.69965 12.0613 7.69965Z" stroke="#171717" stroke-width="1.5" stroke-linecap="round" stroke-linejoin="round"/>
<path d="M4.83078 19.9204C6.36613 19.9204 7.61078 18.6757 7.61078 17.1404C7.61078 15.605 6.36613 14.3604 4.83078 14.3604C3.29543 14.3604 2.05078 15.605 2.05078 17.1404C2.05078 18.6757 3.29543 19.9204 4.83078 19.9204Z" stroke="#171717" stroke-width="1.5" stroke-linecap="round" stroke-linejoin="round"/>
<path d="M19.1706 19.9204C20.706 19.9204 21.9506 18.6757 21.9506 17.1404C21.9506 15.605 20.706 14.3604 19.1706 14.3604C17.6353 14.3604 16.3906 15.605 16.3906 17.1404C16.3906 18.6757 17.6353 19.9204 19.1706 19.9204Z" stroke="#171717" stroke-width="1.5" stroke-linecap="round" stroke-linejoin="round"/>
</svg>
