<svg width="24" height="24" viewBox="0 0 24 24" fill="none" xmlns="http://www.w3.org/2000/svg">
<path d="M13.7289 3.50965L15.4889 7.02965C15.7289 7.51965 16.3689 7.98965 16.9089 8.07965L20.0989 8.60965C22.1389 8.94965 22.6189 10.4296 21.1489 11.8896L18.6689 14.3696C18.2489 14.7896 18.0189 15.5996 18.1489 16.1796L18.8589 19.2496C19.4189 21.6796 18.1289 22.6196 15.9789 21.3496L12.9889 19.5796C12.4489 19.2596 11.5589 19.2596 11.0089 19.5796L8.01893 21.3496C5.87893 22.6196 4.57893 21.6696 5.13893 19.2496L5.84893 16.1796C5.97893 15.5996 5.74893 14.7896 5.32893 14.3696L2.84893 11.8896C1.38893 10.4296 1.85893 8.94965 3.89893 8.60965L7.08893 8.07965C7.61893 7.98965 8.25893 7.51965 8.49893 7.02965L10.2589 3.50965C11.2189 1.59965 12.7789 1.59965 13.7289 3.50965Z" stroke="#171717" stroke-width="1.5" stroke-linecap="round" stroke-linejoin="round"/>
</svg>
