<svg width="16" height="16" viewBox="0 0 16 16" fill="none" xmlns="http://www.w3.org/2000/svg">
<g clip-path="url(#clip0_231_364)">
<path d="M2 5.66699C2 4.01014 3.34315 2.66699 5 2.66699H11C12.6569 2.66699 14 4.01014 14 5.66699V6.16699C14 6.44313 13.7761 6.66699 13.5 6.66699H13.3333C12.597 6.66699 12 7.26395 12 8.00033V8.00033C12 8.7367 12.597 9.33366 13.3333 9.33366H13.5C13.7761 9.33366 14 9.55752 14 9.83366V10.3337C14 11.9905 12.6569 13.3337 11 13.3337H5C3.34315 13.3337 2 11.9905 2 10.3337V9.83366C2 9.55752 2.22386 9.33366 2.5 9.33366H2.66667C3.40305 9.33366 4 8.7367 4 8.00033V8.00033C4 7.26395 3.40305 6.66699 2.66667 6.66699H2.5C2.22386 6.66699 2 6.44313 2 6.16699V5.66699Z" stroke="#1D1D1D"/>
<path d="M7.70581 7.12602C7.81789 6.83604 7.87394 6.69105 7.96499 6.67096C7.98893 6.66567 8.01367 6.66567 8.03762 6.67096C8.12867 6.69105 8.18471 6.83604 8.29679 7.12602C8.36054 7.29093 8.39241 7.37339 8.45204 7.42947C8.46877 7.4452 8.48693 7.45921 8.50626 7.4713C8.57518 7.51441 8.66123 7.52241 8.83331 7.5384C9.12463 7.56548 9.27028 7.57902 9.31476 7.6652C9.32398 7.68305 9.33024 7.70238 9.33329 7.72238C9.34804 7.81894 9.24096 7.92004 9.0268 8.12224L8.96733 8.17839C8.86721 8.27292 8.81715 8.32019 8.78819 8.37917C8.77082 8.41456 8.75918 8.45266 8.75372 8.49197C8.74462 8.55749 8.75928 8.62606 8.7886 8.7632L8.79907 8.8122C8.85165 9.05813 8.87794 9.18109 8.84513 9.24154C8.81565 9.29583 8.76135 9.33059 8.70137 9.33356C8.63459 9.33687 8.5405 9.2573 8.35232 9.09817C8.22834 8.99333 8.16635 8.94091 8.09753 8.92043C8.03465 8.90172 7.96796 8.90172 7.90507 8.92043C7.83625 8.94091 7.77426 8.99333 7.65028 9.09817C7.4621 9.2573 7.36801 9.33687 7.30124 9.33356C7.24126 9.33059 7.18696 9.29583 7.15748 9.24154C7.12466 9.18109 7.15095 9.05813 7.20353 8.8122L7.214 8.7632C7.24332 8.62606 7.25798 8.55749 7.24889 8.49197C7.24343 8.45266 7.23178 8.41456 7.21441 8.37917C7.18546 8.32019 7.1354 8.27292 7.03527 8.17839L6.9758 8.12224C6.76164 7.92004 6.65456 7.81894 6.66931 7.72238C6.67236 7.70238 6.67863 7.68305 6.68784 7.6652C6.73232 7.57902 6.87798 7.56548 7.16929 7.5384C7.34138 7.52241 7.42742 7.51441 7.49635 7.4713C7.51568 7.45921 7.53384 7.4452 7.55056 7.42947C7.6102 7.37339 7.64207 7.29093 7.70581 7.12602Z" fill="#1D1D1D" stroke="#1D1D1D"/>
</g>
<defs>
<clipPath id="clip0_231_364">
<rect width="16" height="16" fill="white"/>
</clipPath>
</defs>
</svg>
